<svg xmlns="http://www.w3.org/2000/svg" xmlns:xlink="http://www.w3.org/1999/xlink" width="1920" zoomAndPan="magnify" viewBox="0 0 1440 809.999993" height="1080" preserveAspectRatio="xMidYMid meet" version="1.0"><defs><g/></defs><g fill="#ffffff" fill-opacity="1"><g transform="translate(26.121099, 448.71612)"><g><path d="M 101.125 -99.28125 L 101.125 1.078125 C 99.070312 1.078125 97.070312 0.71875 95.125 0 C 93.1875 -0.71875 91.5 -1.945312 90.0625 -3.6875 L 90.0625 -22.75 C 86.476562 -19.15625 82.175781 -16.179688 77.15625 -13.828125 C 72.132812 -11.472656 66.191406 -10.296875 59.328125 -10.296875 C 55.117188 -10.296875 50.609375 -11.394531 45.796875 -13.59375 C 40.984375 -15.800781 36.5 -18.644531 32.34375 -22.125 C 28.195312 -25.613281 24.738281 -29.535156 21.96875 -33.890625 C 19.207031 -38.242188 17.828125 -42.570312 17.828125 -46.875 C 17.828125 -51.789062 18.875 -56.066406 20.96875 -59.703125 C 23.070312 -63.335938 25.96875 -66.390625 29.65625 -68.859375 L 8.609375 -68.859375 C 7.679688 -69.160156 6.882812 -69.695312 6.21875 -70.46875 C 5.550781 -71.238281 4.988281 -72.082031 4.53125 -73 C 4.070312 -73.925781 3.738281 -74.875 3.53125 -75.84375 C 3.332031 -76.820312 3.234375 -77.664062 3.234375 -78.375 L 70.546875 -78.375 C 71.460938 -78.375 72.28125 -78.015625 73 -77.296875 C 73.71875 -76.585938 74.332031 -75.71875 74.84375 -74.6875 C 75.351562 -73.664062 75.757812 -72.613281 76.0625 -71.53125 C 76.375 -70.457031 76.53125 -69.566406 76.53125 -68.859375 L 61.328125 -68.859375 C 56.710938 -68.859375 52.429688 -68.191406 48.484375 -66.859375 C 44.546875 -65.523438 41.140625 -63.601562 38.265625 -61.09375 C 35.398438 -58.582031 33.144531 -55.457031 31.5 -51.71875 C 29.863281 -47.976562 29.046875 -43.75 29.046875 -39.03125 C 29.046875 -35.757812 29.609375 -32.890625 30.734375 -30.421875 C 31.859375 -27.960938 33.367188 -25.890625 35.265625 -24.203125 C 37.160156 -22.515625 39.414062 -21.234375 42.03125 -20.359375 C 44.644531 -19.492188 47.488281 -19.0625 50.5625 -19.0625 C 54.5625 -19.0625 58.53125 -19.648438 62.46875 -20.828125 C 66.414062 -22.003906 70.128906 -23.664062 73.609375 -25.8125 C 77.097656 -27.96875 80.25 -30.554688 83.0625 -33.578125 C 85.882812 -36.597656 88.21875 -39.953125 90.0625 -43.640625 L 90.0625 -99.28125 L 0 -99.28125 C -0.925781 -99.28125 -1.742188 -99.585938 -2.453125 -100.203125 C -3.171875 -100.816406 -3.785156 -101.582031 -4.296875 -102.5 C -4.816406 -103.425781 -5.226562 -104.375 -5.53125 -105.34375 C -5.84375 -106.320312 -6 -107.171875 -6 -107.890625 L 118.34375 -107.890625 C 119.257812 -107.890625 120.078125 -107.582031 120.796875 -106.96875 C 121.515625 -106.351562 122.128906 -105.582031 122.640625 -104.65625 C 123.148438 -103.738281 123.554688 -102.789062 123.859375 -101.8125 C 124.171875 -100.84375 124.328125 -100 124.328125 -99.28125 Z M 101.125 -99.28125 "/></g></g></g><g fill="#ffffff" fill-opacity="1"><g transform="translate(145.991237, 448.71612)"><g><path d="M 29.8125 -99.28125 L 29.8125 1.078125 C 27.757812 1.078125 25.757812 0.71875 23.8125 0 C 21.875 -0.71875 20.1875 -1.945312 18.75 -3.6875 L 18.75 -99.28125 L 0 -99.28125 C -0.925781 -99.28125 -1.742188 -99.585938 -2.453125 -100.203125 C -3.171875 -100.816406 -3.785156 -101.582031 -4.296875 -102.5 C -4.816406 -103.425781 -5.226562 -104.375 -5.53125 -105.34375 C -5.84375 -106.320312 -6 -107.171875 -6 -107.890625 L 47.03125 -107.890625 C 47.945312 -107.890625 48.765625 -107.582031 49.484375 -106.96875 C 50.203125 -106.351562 50.816406 -105.582031 51.328125 -104.65625 C 51.835938 -103.738281 52.242188 -102.789062 52.546875 -101.8125 C 52.859375 -100.84375 53.015625 -100 53.015625 -99.28125 Z M 29.8125 -99.28125 "/></g></g></g><g fill="#ffffff" fill-opacity="1"><g transform="translate(194.554009, 448.71612)"><g><path d="M 18.28125 -34.890625 C 15.207031 -37.648438 12.695312 -40.847656 10.75 -44.484375 C 8.8125 -48.128906 7.84375 -51.894531 7.84375 -55.78125 C 7.84375 -58.25 8.300781 -60.757812 9.21875 -63.3125 C 10.144531 -65.875 11.601562 -68.226562 13.59375 -70.375 C 15.59375 -72.53125 18.179688 -74.300781 21.359375 -75.6875 C 24.535156 -77.070312 28.328125 -77.765625 32.734375 -77.765625 C 37.960938 -77.765625 42.753906 -76.6875 47.109375 -74.53125 C 51.460938 -72.382812 55.226562 -69.671875 58.40625 -66.390625 L 58.40625 -99.28125 L 0 -99.28125 C -0.925781 -99.28125 -1.742188 -99.585938 -2.453125 -100.203125 C -3.171875 -100.816406 -3.785156 -101.582031 -4.296875 -102.5 C -4.816406 -103.425781 -5.226562 -104.375 -5.53125 -105.34375 C -5.84375 -106.320312 -6 -107.171875 -6 -107.890625 L 82.6875 -107.890625 C 83.601562 -107.890625 84.421875 -107.582031 85.140625 -106.96875 C 85.859375 -106.351562 86.472656 -105.582031 86.984375 -104.65625 C 87.492188 -103.738281 87.898438 -102.789062 88.203125 -101.8125 C 88.515625 -100.84375 88.671875 -100 88.671875 -99.28125 L 69.46875 -99.28125 L 69.46875 -59.78125 C 69.46875 -54.863281 68.851562 -50.304688 67.625 -46.109375 C 66.394531 -41.910156 64.550781 -38.296875 62.09375 -35.265625 C 59.632812 -32.242188 56.554688 -29.863281 52.859375 -28.125 C 49.171875 -26.382812 44.820312 -25.515625 39.8125 -25.515625 C 37.957031 -25.515625 35.90625 -25.769531 33.65625 -26.28125 L 66.859375 4 C 66.648438 4.8125 66.265625 5.421875 65.703125 5.828125 C 65.140625 6.242188 64.601562 6.453125 64.09375 6.453125 Z M 31.96875 -34.265625 C 36.476562 -34.265625 40.367188 -35.007812 43.640625 -36.5 C 46.921875 -37.988281 49.660156 -39.988281 51.859375 -42.5 C 54.066406 -45.007812 55.707031 -47.925781 56.78125 -51.25 C 57.863281 -54.582031 58.40625 -58.09375 58.40625 -61.78125 C 55.945312 -64.03125 53.175781 -65.742188 50.09375 -66.921875 C 47.019531 -68.109375 43.898438 -68.703125 40.734375 -68.703125 C 37.648438 -68.703125 34.773438 -68.238281 32.109375 -67.3125 C 29.453125 -66.394531 27.097656 -65.035156 25.046875 -63.234375 C 23.003906 -61.441406 21.390625 -59.289062 20.203125 -56.78125 C 19.023438 -54.269531 18.4375 -51.429688 18.4375 -48.265625 C 18.4375 -44.367188 19.488281 -41.0625 21.59375 -38.34375 C 23.695312 -35.625 27.15625 -34.265625 31.96875 -34.265625 Z M 31.96875 -34.265625 "/></g></g></g><g fill="#ffffff" fill-opacity="1"><g transform="translate(277.233666, 448.71612)"><g><path d="M 120.796875 -107.890625 C 121.722656 -107.890625 122.539062 -107.582031 123.25 -106.96875 C 123.96875 -106.351562 124.582031 -105.582031 125.09375 -104.65625 C 125.613281 -103.738281 126.023438 -102.789062 126.328125 -101.8125 C 126.640625 -100.84375 126.796875 -100 126.796875 -99.28125 L 103.578125 -99.28125 L 103.578125 1.078125 C 101.535156 1.078125 99.539062 0.71875 97.59375 0 C 95.644531 -0.71875 93.953125 -1.945312 92.515625 -3.6875 L 92.515625 -22.28125 C 88.523438 -18.59375 83.738281 -15.546875 78.15625 -13.140625 C 72.570312 -10.734375 65.9375 -9.53125 58.25 -9.53125 C 53.945312 -9.53125 49.285156 -10.523438 44.265625 -12.515625 C 39.242188 -14.515625 34.582031 -17.128906 30.28125 -20.359375 C 25.976562 -23.585938 22.390625 -27.222656 19.515625 -31.265625 C 16.648438 -35.316406 15.21875 -39.394531 15.21875 -43.5 C 15.21875 -47.382812 16.472656 -50.890625 18.984375 -54.015625 C 21.492188 -57.140625 25.003906 -59.78125 29.515625 -61.9375 C 26.234375 -63.78125 23.054688 -65.929688 19.984375 -68.390625 C 16.910156 -70.847656 14.191406 -73.613281 11.828125 -76.6875 C 9.472656 -79.757812 7.578125 -83.140625 6.140625 -86.828125 C 4.710938 -90.515625 4 -94.515625 4 -98.828125 C 4 -101.179688 4.40625 -103.660156 5.21875 -106.265625 C 6.039062 -108.878906 7.320312 -111.265625 9.0625 -113.421875 C 10.8125 -115.578125 12.988281 -117.34375 15.59375 -118.71875 C 18.207031 -120.101562 21.359375 -120.796875 25.046875 -120.796875 C 28.640625 -120.796875 32.253906 -119.847656 35.890625 -117.953125 C 39.523438 -116.054688 42.800781 -113.722656 45.71875 -110.953125 C 48.644531 -108.191406 51.03125 -105.171875 52.875 -101.890625 C 54.71875 -98.617188 55.640625 -95.597656 55.640625 -92.828125 C 55.640625 -90.367188 55.148438 -88.21875 54.171875 -86.375 C 53.203125 -84.53125 51.945312 -82.992188 50.40625 -81.765625 C 48.875 -80.535156 47.109375 -79.585938 45.109375 -78.921875 C 43.109375 -78.253906 41.035156 -77.921875 38.890625 -77.921875 C 37.648438 -77.921875 36.1875 -78.070312 34.5 -78.375 C 32.8125 -78.6875 31.070312 -79.222656 29.28125 -79.984375 C 27.488281 -80.753906 25.742188 -81.753906 24.046875 -82.984375 C 22.359375 -84.210938 20.953125 -85.753906 19.828125 -87.609375 C 19.828125 -88.421875 19.953125 -88.878906 20.203125 -88.984375 C 20.460938 -89.085938 20.695312 -89.140625 20.90625 -89.140625 C 22.539062 -88.117188 24.070312 -87.453125 25.5 -87.140625 C 26.9375 -86.835938 28.679688 -86.6875 30.734375 -86.6875 C 35.140625 -86.6875 38.675781 -87.988281 41.34375 -90.59375 C 44.007812 -93.207031 45.34375 -96.664062 45.34375 -100.96875 C 45.34375 -104.457031 44.1875 -107.125 41.875 -108.96875 C 39.570312 -110.8125 36.628906 -111.734375 33.046875 -111.734375 C 27.710938 -111.734375 23.300781 -109.9375 19.8125 -106.34375 C 16.332031 -102.757812 14.59375 -97.742188 14.59375 -91.296875 C 14.59375 -86.171875 16.257812 -81.046875 19.59375 -75.921875 C 22.925781 -70.796875 27.410156 -66.59375 33.046875 -63.3125 C 36.628906 -64.75 40.546875 -65.800781 44.796875 -66.46875 C 49.046875 -67.132812 53.632812 -67.519531 58.5625 -67.625 C 60.5 -66.5 62.03125 -65.113281 63.15625 -63.46875 C 64.289062 -61.832031 65.21875 -59.988281 65.9375 -57.9375 C 60.195312 -57.9375 54.914062 -57.421875 50.09375 -56.390625 C 45.28125 -55.367188 41.128906 -53.910156 37.640625 -52.015625 C 34.160156 -50.128906 31.421875 -47.800781 29.421875 -45.03125 C 27.429688 -42.257812 26.4375 -39.132812 26.4375 -35.65625 C 26.4375 -32.6875 27.023438 -30.125 28.203125 -27.96875 C 29.378906 -25.820312 30.988281 -24.03125 33.03125 -22.59375 C 35.082031 -21.15625 37.515625 -20.078125 40.328125 -19.359375 C 43.148438 -18.640625 46.203125 -18.28125 49.484375 -18.28125 C 53.785156 -18.28125 58.035156 -18.84375 62.234375 -19.96875 C 66.441406 -21.101562 70.441406 -22.664062 74.234375 -24.65625 C 78.023438 -26.65625 81.484375 -29.0625 84.609375 -31.875 C 87.734375 -34.695312 90.367188 -37.851562 92.515625 -41.34375 L 92.515625 -99.28125 L 67.78125 -99.28125 C 66.957031 -99.28125 66.160156 -99.585938 65.390625 -100.203125 C 64.617188 -100.816406 63.976562 -101.582031 63.46875 -102.5 C 62.957031 -103.425781 62.546875 -104.375 62.234375 -105.34375 C 61.929688 -106.320312 61.78125 -107.171875 61.78125 -107.890625 Z M 120.796875 -107.890625 "/></g></g></g><g fill="#ffffff" fill-opacity="1"><g transform="translate(399.56267, 448.71612)"><g><path d="M 29.8125 -99.28125 L 29.8125 1.078125 C 27.757812 1.078125 25.757812 0.71875 23.8125 0 C 21.875 -0.71875 20.1875 -1.945312 18.75 -3.6875 L 18.75 -99.28125 L 0 -99.28125 C -0.925781 -99.28125 -1.742188 -99.585938 -2.453125 -100.203125 C -3.171875 -100.816406 -3.785156 -101.582031 -4.296875 -102.5 C -4.816406 -103.425781 -5.226562 -104.375 -5.53125 -105.34375 C -5.84375 -106.320312 -6 -107.171875 -6 -107.890625 L 47.03125 -107.890625 C 47.945312 -107.890625 48.765625 -107.582031 49.484375 -106.96875 C 50.203125 -106.351562 50.816406 -105.582031 51.328125 -104.65625 C 51.835938 -103.738281 52.242188 -102.789062 52.546875 -101.8125 C 52.859375 -100.84375 53.015625 -100 53.015625 -99.28125 Z M 29.8125 -99.28125 "/></g></g></g><g fill="#ffffff" fill-opacity="1"><g transform="translate(448.125442, 448.71612)"><g><path d="M 41.03125 -13.828125 C 37.75 -13.828125 34.109375 -14.773438 30.109375 -16.671875 C 26.117188 -18.566406 22.332031 -21.078125 18.75 -24.203125 C 15.164062 -27.328125 12.164062 -30.863281 9.75 -34.8125 C 7.34375 -38.757812 6.140625 -42.726562 6.140625 -46.71875 C 6.140625 -50.71875 6.929688 -54.351562 8.515625 -57.625 C 10.109375 -60.90625 12.363281 -63.695312 15.28125 -66 C 18.207031 -68.3125 21.664062 -70.109375 25.65625 -71.390625 C 29.65625 -72.671875 34.066406 -73.3125 38.890625 -73.3125 C 43.804688 -73.3125 48.820312 -72.75 53.9375 -71.625 L 53.9375 -99.28125 L 0 -99.28125 C -0.925781 -99.28125 -1.742188 -99.585938 -2.453125 -100.203125 C -3.171875 -100.816406 -3.785156 -101.582031 -4.296875 -102.5 C -4.816406 -103.425781 -5.226562 -104.375 -5.53125 -105.34375 C -5.84375 -106.320312 -6 -107.171875 -6 -107.890625 L 127.09375 -107.890625 C 128.019531 -107.890625 128.84375 -107.582031 129.5625 -106.96875 C 130.28125 -106.351562 130.894531 -105.582031 131.40625 -104.65625 C 131.914062 -103.738281 132.320312 -102.789062 132.625 -101.8125 C 132.9375 -100.84375 133.09375 -100 133.09375 -99.28125 L 109.890625 -99.28125 L 109.890625 1.078125 C 107.835938 1.078125 105.835938 0.71875 103.890625 0 C 101.941406 -0.71875 100.253906 -1.945312 98.828125 -3.6875 L 98.828125 -24.4375 C 98.828125 -28.53125 98.03125 -32.523438 96.4375 -36.421875 C 94.851562 -40.316406 92.597656 -43.925781 89.671875 -47.25 C 86.753906 -50.582031 83.21875 -53.503906 79.0625 -56.015625 C 74.914062 -58.523438 70.234375 -60.5 65.015625 -61.9375 L 65.015625 -41.796875 C 65.015625 -37.804688 64.523438 -34.09375 63.546875 -30.65625 C 62.578125 -27.226562 61.117188 -24.257812 59.171875 -21.75 C 57.222656 -19.238281 54.738281 -17.289062 51.71875 -15.90625 C 48.695312 -14.519531 45.132812 -13.828125 41.03125 -13.828125 Z M 65.015625 -68.390625 C 71.878906 -65.722656 78.203125 -62.238281 83.984375 -57.9375 C 89.773438 -53.632812 94.722656 -48.71875 98.828125 -43.1875 L 98.828125 -99.28125 L 65.015625 -99.28125 Z M 33.046875 -22.59375 C 36.523438 -22.59375 39.597656 -23.207031 42.265625 -24.4375 C 44.929688 -25.664062 47.109375 -27.328125 48.796875 -29.421875 C 50.484375 -31.523438 51.757812 -33.984375 52.625 -36.796875 C 53.5 -39.617188 53.9375 -42.617188 53.9375 -45.796875 L 53.9375 -63.9375 C 52.8125 -64.039062 51.632812 -64.113281 50.40625 -64.15625 C 49.175781 -64.207031 47.945312 -64.234375 46.71875 -64.234375 C 42.625 -64.234375 38.78125 -63.644531 35.1875 -62.46875 C 31.601562 -61.289062 28.476562 -59.625 25.8125 -57.46875 C 23.15625 -55.320312 21.054688 -52.6875 19.515625 -49.5625 C 17.984375 -46.4375 17.21875 -42.925781 17.21875 -39.03125 C 17.21875 -33.8125 18.675781 -29.765625 21.59375 -26.890625 C 24.507812 -24.023438 28.328125 -22.59375 33.046875 -22.59375 Z M 33.046875 -22.59375 "/></g></g></g><g fill="#ffffff" fill-opacity="1"><g transform="translate(576.755333, 448.71612)"><g/></g></g><g fill="#ffffff" fill-opacity="1"><g transform="translate(617.480459, 448.71612)"><g><path d="M 98.359375 -99.28125 L 98.359375 1.078125 C 96.304688 1.078125 94.304688 0.71875 92.359375 0 C 90.421875 -0.71875 88.734375 -1.945312 87.296875 -3.6875 L 87.296875 -24.75 C 83.910156 -22.289062 79.9375 -20.289062 75.375 -18.75 C 70.820312 -17.207031 65.523438 -16.4375 59.484375 -16.4375 C 52.921875 -16.4375 46.796875 -17.5625 41.109375 -19.8125 C 35.421875 -22.070312 30.269531 -25.195312 25.65625 -29.1875 C 21.050781 -33.1875 17.054688 -37.875 13.671875 -43.25 C 10.296875 -48.632812 7.6875 -54.453125 5.84375 -60.703125 C 17.3125 -61.316406 25.941406 -63.644531 31.734375 -67.6875 C 37.523438 -71.738281 40.421875 -77.710938 40.421875 -85.609375 C 40.421875 -90.828125 38.78125 -95.382812 35.5 -99.28125 L 0 -99.28125 C -0.925781 -99.28125 -1.742188 -99.585938 -2.453125 -100.203125 C -3.171875 -100.816406 -3.785156 -101.582031 -4.296875 -102.5 C -4.816406 -103.425781 -5.226562 -104.375 -5.53125 -105.34375 C -5.84375 -106.320312 -6 -107.171875 -6 -107.890625 L 115.578125 -107.890625 C 116.492188 -107.890625 117.3125 -107.582031 118.03125 -106.96875 C 118.75 -106.351562 119.363281 -105.582031 119.875 -104.65625 C 120.382812 -103.738281 120.789062 -102.789062 121.09375 -101.8125 C 121.40625 -100.84375 121.5625 -100 121.5625 -99.28125 Z M 50.71875 -25.203125 C 58.09375 -25.203125 65.082031 -26.816406 71.6875 -30.046875 C 78.300781 -33.273438 83.503906 -37.65625 87.296875 -43.1875 L 87.296875 -99.28125 L 39.8125 -99.28125 C 43.5 -96 46.289062 -92.359375 48.1875 -88.359375 C 50.082031 -84.367188 51.03125 -80.425781 51.03125 -76.53125 C 51.03125 -72.84375 50.082031 -69.460938 48.1875 -66.390625 C 46.289062 -63.316406 43.675781 -60.648438 40.34375 -58.390625 C 37.007812 -56.140625 33.113281 -54.320312 28.65625 -52.9375 C 24.207031 -51.5625 19.421875 -50.71875 14.296875 -50.40625 C 16.140625 -46.820312 18.289062 -43.492188 20.75 -40.421875 C 23.207031 -37.347656 25.972656 -34.679688 29.046875 -32.421875 C 32.117188 -30.171875 35.472656 -28.40625 39.109375 -27.125 C 42.742188 -25.84375 46.613281 -25.203125 50.71875 -25.203125 Z M 50.71875 -25.203125 "/></g></g></g><g fill="#ffffff" fill-opacity="1"><g transform="translate(734.584366, 448.71612)"><g><path d="M 29.8125 -99.28125 L 29.8125 1.078125 C 27.757812 1.078125 25.757812 0.71875 23.8125 0 C 21.875 -0.71875 20.1875 -1.945312 18.75 -3.6875 L 18.75 -99.28125 L 0 -99.28125 C -0.925781 -99.28125 -1.742188 -99.585938 -2.453125 -100.203125 C -3.171875 -100.816406 -3.785156 -101.582031 -4.296875 -102.5 C -4.816406 -103.425781 -5.226562 -104.375 -5.53125 -105.34375 C -5.84375 -106.320312 -6 -107.171875 -6 -107.890625 L 47.03125 -107.890625 C 47.945312 -107.890625 48.765625 -107.582031 49.484375 -106.96875 C 50.203125 -106.351562 50.816406 -105.582031 51.328125 -104.65625 C 51.835938 -103.738281 52.242188 -102.789062 52.546875 -101.8125 C 52.859375 -100.84375 53.015625 -100 53.015625 -99.28125 Z M 29.8125 -99.28125 "/></g></g></g><g fill="#ffffff" fill-opacity="1"><g transform="translate(783.147138, 448.71612)"><g><path d="M 87.140625 -39.34375 L 15.671875 -7.53125 C 13.929688 -8.351562 12.472656 -9.582031 11.296875 -11.21875 C 10.117188 -12.851562 9.273438 -14.546875 8.765625 -16.296875 L 29.359375 -25.046875 C 37.648438 -28.535156 43.894531 -32.738281 48.09375 -37.65625 C 52.300781 -42.570312 54.40625 -48.515625 54.40625 -55.484375 C 54.40625 -58.453125 53.941406 -60.984375 53.015625 -63.078125 C 52.097656 -65.179688 50.867188 -66.925781 49.328125 -68.3125 C 47.796875 -69.695312 46.03125 -70.695312 44.03125 -71.3125 C 42.03125 -71.925781 39.90625 -72.234375 37.65625 -72.234375 C 33.65625 -72.234375 29.785156 -71.285156 26.046875 -69.390625 C 22.304688 -67.492188 18.953125 -64.804688 15.984375 -61.328125 C 14.242188 -61.835938 12.375 -62.960938 10.375 -64.703125 C 8.375 -66.441406 6.863281 -68.179688 5.84375 -69.921875 C 8.601562 -73.515625 11.984375 -76.304688 15.984375 -78.296875 C 19.984375 -80.296875 24.179688 -81.296875 28.578125 -81.296875 C 33.398438 -81.296875 37.988281 -80.21875 42.34375 -78.0625 C 46.695312 -75.914062 50.535156 -73.175781 53.859375 -69.84375 C 57.191406 -66.519531 59.832031 -62.910156 61.78125 -59.015625 C 63.726562 -55.117188 64.703125 -51.484375 64.703125 -48.109375 C 64.703125 -45.035156 63.882812 -42.007812 62.25 -39.03125 L 87.140625 -49.640625 L 87.140625 -99.28125 L -0.15625 -99.28125 C -1.070312 -99.28125 -1.890625 -99.585938 -2.609375 -100.203125 C -3.328125 -100.816406 -3.941406 -101.582031 -4.453125 -102.5 C -4.960938 -103.425781 -5.347656 -104.375 -5.609375 -105.34375 C -5.867188 -106.320312 -6 -107.171875 -6 -107.890625 L 115.421875 -107.890625 C 116.335938 -107.890625 117.15625 -107.582031 117.875 -106.96875 C 118.59375 -106.351562 119.207031 -105.582031 119.71875 -104.65625 C 120.226562 -103.738281 120.632812 -102.789062 120.9375 -101.8125 C 121.25 -100.84375 121.40625 -100 121.40625 -99.28125 L 98.203125 -99.28125 L 98.203125 1.078125 C 96.148438 1.078125 94.148438 0.71875 92.203125 0 C 90.265625 -0.71875 88.578125 -1.945312 87.140625 -3.6875 Z M 87.140625 -39.34375 "/></g></g></g><g fill="#ffffff" fill-opacity="1"><g transform="translate(900.097373, 448.71612)"><g><path d="M 29.8125 -99.28125 L 29.8125 1.078125 C 27.757812 1.078125 25.757812 0.71875 23.8125 0 C 21.875 -0.71875 20.1875 -1.945312 18.75 -3.6875 L 18.75 -99.28125 L 0 -99.28125 C -0.925781 -99.28125 -1.742188 -99.585938 -2.453125 -100.203125 C -3.171875 -100.816406 -3.785156 -101.582031 -4.296875 -102.5 C -4.816406 -103.425781 -5.226562 -104.375 -5.53125 -105.34375 C -5.84375 -106.320312 -6 -107.171875 -6 -107.890625 L 47.03125 -107.890625 C 47.945312 -107.890625 48.765625 -107.582031 49.484375 -106.96875 C 50.203125 -106.351562 50.816406 -105.582031 51.328125 -104.65625 C 51.835938 -103.738281 52.242188 -102.789062 52.546875 -101.8125 C 52.859375 -100.84375 53.015625 -100 53.015625 -99.28125 Z M 29.8125 -99.28125 "/></g></g></g><g fill="#ffffff" fill-opacity="1"><g transform="translate(948.660145, 448.71612)"><g/></g></g><g fill="#ffffff" fill-opacity="1"><g transform="translate(989.385272, 448.71612)"><g><path d="M 10.90625 1.078125 C 10.394531 0.765625 9.832031 0.148438 9.21875 -0.765625 C 8.601562 -1.691406 8.191406 -2.613281 7.984375 -3.53125 L 34.421875 -28.125 C 39.859375 -33.144531 44.648438 -37.703125 48.796875 -41.796875 C 52.941406 -45.898438 56.394531 -49.820312 59.15625 -53.5625 C 61.925781 -57.300781 64.03125 -61.066406 65.46875 -64.859375 C 66.90625 -68.648438 67.625 -72.847656 67.625 -77.453125 C 67.625 -81.140625 67.132812 -84.546875 66.15625 -87.671875 C 65.1875 -90.796875 63.753906 -93.507812 61.859375 -95.8125 C 59.960938 -98.125 57.550781 -99.945312 54.625 -101.28125 C 51.707031 -102.613281 48.304688 -103.28125 44.421875 -103.28125 C 41.753906 -103.28125 39.191406 -102.894531 36.734375 -102.125 C 34.273438 -101.351562 32.046875 -100.195312 30.046875 -98.65625 C 28.046875 -97.125 26.457031 -95.207031 25.28125 -92.90625 C 24.101562 -90.601562 23.515625 -87.863281 23.515625 -84.6875 C 23.515625 -82.425781 23.945312 -80.578125 24.8125 -79.140625 C 25.6875 -77.710938 26.585938 -76.484375 27.515625 -75.453125 C 26.585938 -74.023438 24.96875 -72.769531 22.65625 -71.6875 C 20.351562 -70.613281 18.128906 -70.078125 15.984375 -70.078125 C 14.859375 -70.691406 13.78125 -71.894531 12.75 -73.6875 C 11.726562 -75.476562 11.21875 -77.914062 11.21875 -81 C 11.21875 -84.6875 12.164062 -88.296875 14.0625 -91.828125 C 15.957031 -95.359375 18.566406 -98.457031 21.890625 -101.125 C 25.222656 -103.789062 29.195312 -105.941406 33.8125 -107.578125 C 38.425781 -109.222656 43.445312 -110.046875 48.875 -110.046875 C 54.40625 -110.046875 59.21875 -109.273438 63.3125 -107.734375 C 67.414062 -106.191406 70.773438 -104.113281 73.390625 -101.5 C 76.003906 -98.894531 77.945312 -95.875 79.21875 -92.4375 C 80.5 -89.007812 81.140625 -85.453125 81.140625 -81.765625 C 81.140625 -76.847656 80.421875 -72.285156 78.984375 -68.078125 C 77.554688 -63.878906 75.203125 -59.550781 71.921875 -55.09375 C 68.640625 -50.632812 64.359375 -45.789062 59.078125 -40.5625 C 53.804688 -35.34375 47.332031 -29.351562 39.65625 -22.59375 L 23.515625 -8.296875 L 84.21875 -8.296875 C 84.007812 -5.628906 83.1875 -3.398438 81.75 -1.609375 C 80.320312 0.179688 78.738281 1.078125 77 1.078125 Z M 10.90625 1.078125 "/></g></g></g><g fill="#ffffff" fill-opacity="1"><g transform="translate(1082.51518, 448.71612)"><g><path d="M 10.140625 -50.109375 C 10.140625 -59.222656 11.265625 -67.46875 13.515625 -74.84375 C 15.773438 -82.21875 18.875 -88.519531 22.8125 -93.75 C 26.757812 -98.976562 31.421875 -103 36.796875 -105.8125 C 42.179688 -108.632812 48 -110.046875 54.25 -110.046875 C 61.007812 -110.046875 66.769531 -108.632812 71.53125 -105.8125 C 76.300781 -103 80.195312 -99.234375 83.21875 -94.515625 C 86.238281 -89.804688 88.441406 -84.328125 89.828125 -78.078125 C 91.210938 -71.828125 91.90625 -65.269531 91.90625 -58.40625 C 91.90625 -51.125 91.160156 -43.847656 89.671875 -36.578125 C 88.191406 -29.304688 85.757812 -22.773438 82.375 -16.984375 C 79 -11.191406 74.539062 -6.476562 69 -2.84375 C 63.46875 0.789062 56.65625 2.609375 48.5625 2.609375 C 43.238281 2.609375 38.242188 1.507812 33.578125 -0.6875 C 28.921875 -2.894531 24.847656 -6.203125 21.359375 -10.609375 C 17.878906 -15.015625 15.140625 -20.519531 13.140625 -27.125 C 11.140625 -33.726562 10.140625 -41.390625 10.140625 -50.109375 Z M 23.203125 -56.703125 C 23.203125 -48.203125 23.941406 -40.695312 25.421875 -34.1875 C 26.910156 -27.6875 28.988281 -22.234375 31.65625 -17.828125 C 34.320312 -13.421875 37.472656 -10.085938 41.109375 -7.828125 C 44.742188 -5.578125 48.710938 -4.453125 53.015625 -4.453125 C 61.421875 -4.453125 67.828125 -8.34375 72.234375 -16.125 C 76.640625 -23.914062 78.84375 -35.804688 78.84375 -51.796875 C 78.84375 -58.660156 78.273438 -65.21875 77.140625 -71.46875 C 76.015625 -77.71875 74.273438 -83.171875 71.921875 -87.828125 C 69.566406 -92.492188 66.570312 -96.207031 62.9375 -98.96875 C 59.300781 -101.738281 54.972656 -103.125 49.953125 -103.125 C 46.972656 -103.125 43.894531 -102.378906 40.71875 -100.890625 C 37.550781 -99.410156 34.660156 -96.875 32.046875 -93.28125 C 29.429688 -89.695312 27.300781 -84.929688 25.65625 -78.984375 C 24.019531 -73.046875 23.203125 -65.617188 23.203125 -56.703125 Z M 23.203125 -56.703125 "/></g></g></g><g fill="#ffffff" fill-opacity="1"><g transform="translate(1184.558479, 448.71612)"><g><path d="M 10.90625 1.078125 C 10.394531 0.765625 9.832031 0.148438 9.21875 -0.765625 C 8.601562 -1.691406 8.191406 -2.613281 7.984375 -3.53125 L 34.421875 -28.125 C 39.859375 -33.144531 44.648438 -37.703125 48.796875 -41.796875 C 52.941406 -45.898438 56.394531 -49.820312 59.15625 -53.5625 C 61.925781 -57.300781 64.03125 -61.066406 65.46875 -64.859375 C 66.90625 -68.648438 67.625 -72.847656 67.625 -77.453125 C 67.625 -81.140625 67.132812 -84.546875 66.15625 -87.671875 C 65.1875 -90.796875 63.753906 -93.507812 61.859375 -95.8125 C 59.960938 -98.125 57.550781 -99.945312 54.625 -101.28125 C 51.707031 -102.613281 48.304688 -103.28125 44.421875 -103.28125 C 41.753906 -103.28125 39.191406 -102.894531 36.734375 -102.125 C 34.273438 -101.351562 32.046875 -100.195312 30.046875 -98.65625 C 28.046875 -97.125 26.457031 -95.207031 25.28125 -92.90625 C 24.101562 -90.601562 23.515625 -87.863281 23.515625 -84.6875 C 23.515625 -82.425781 23.945312 -80.578125 24.8125 -79.140625 C 25.6875 -77.710938 26.585938 -76.484375 27.515625 -75.453125 C 26.585938 -74.023438 24.96875 -72.769531 22.65625 -71.6875 C 20.351562 -70.613281 18.128906 -70.078125 15.984375 -70.078125 C 14.859375 -70.691406 13.78125 -71.894531 12.75 -73.6875 C 11.726562 -75.476562 11.21875 -77.914062 11.21875 -81 C 11.21875 -84.6875 12.164062 -88.296875 14.0625 -91.828125 C 15.957031 -95.359375 18.566406 -98.457031 21.890625 -101.125 C 25.222656 -103.789062 29.195312 -105.941406 33.8125 -107.578125 C 38.425781 -109.222656 43.445312 -110.046875 48.875 -110.046875 C 54.40625 -110.046875 59.21875 -109.273438 63.3125 -107.734375 C 67.414062 -106.191406 70.773438 -104.113281 73.390625 -101.5 C 76.003906 -98.894531 77.945312 -95.875 79.21875 -92.4375 C 80.5 -89.007812 81.140625 -85.453125 81.140625 -81.765625 C 81.140625 -76.847656 80.421875 -72.285156 78.984375 -68.078125 C 77.554688 -63.878906 75.203125 -59.550781 71.921875 -55.09375 C 68.640625 -50.632812 64.359375 -45.789062 59.078125 -40.5625 C 53.804688 -35.34375 47.332031 -29.351562 39.65625 -22.59375 L 23.515625 -8.296875 L 84.21875 -8.296875 C 84.007812 -5.628906 83.1875 -3.398438 81.75 -1.609375 C 80.320312 0.179688 78.738281 1.078125 77 1.078125 Z M 10.90625 1.078125 "/></g></g></g><g fill="#ffffff" fill-opacity="1"><g transform="translate(1277.688388, 448.71612)"><g><path d="M 48.109375 -4.453125 C 51.691406 -4.453125 55.019531 -5.066406 58.09375 -6.296875 C 61.164062 -7.523438 63.800781 -9.316406 66 -11.671875 C 68.207031 -14.035156 69.925781 -16.957031 71.15625 -20.4375 C 72.382812 -23.925781 73 -27.972656 73 -32.578125 C 73 -36.578125 72.484375 -40.316406 71.453125 -43.796875 C 70.429688 -47.285156 68.796875 -50.304688 66.546875 -52.859375 C 64.296875 -55.421875 61.375 -57.445312 57.78125 -58.9375 C 54.195312 -60.425781 49.894531 -61.171875 44.875 -61.171875 C 41.90625 -61.171875 39.113281 -60.890625 36.5 -60.328125 C 33.882812 -59.765625 31.472656 -59.019531 29.265625 -58.09375 C 27.066406 -57.164062 25.097656 -56.140625 23.359375 -55.015625 C 21.617188 -53.890625 20.082031 -52.816406 18.75 -51.796875 C 18.03125 -52.097656 17.335938 -52.632812 16.671875 -53.40625 C 16.003906 -54.175781 15.570312 -54.816406 15.375 -55.328125 L 21.515625 -103.125 C 23.253906 -104.65625 25.582031 -105.929688 28.5 -106.953125 C 31.425781 -107.984375 35.144531 -108.5 39.65625 -108.5 L 82.21875 -108.5 C 82.019531 -105.832031 81.226562 -103.578125 79.84375 -101.734375 C 78.457031 -99.890625 76.585938 -98.96875 74.234375 -98.96875 L 29.8125 -98.96875 L 25.671875 -64.859375 C 28.941406 -66.597656 32.648438 -68.054688 36.796875 -69.234375 C 40.953125 -70.410156 45.488281 -71 50.40625 -71 C 56.550781 -71 61.851562 -70.078125 66.3125 -68.234375 C 70.769531 -66.390625 74.40625 -63.929688 77.21875 -60.859375 C 80.039062 -57.785156 82.117188 -54.222656 83.453125 -50.171875 C 84.785156 -46.128906 85.453125 -41.90625 85.453125 -37.5 C 85.453125 -32.375 84.554688 -27.40625 82.765625 -22.59375 C 80.972656 -17.78125 78.304688 -13.503906 74.765625 -9.765625 C 71.234375 -6.023438 66.800781 -3.023438 61.46875 -0.765625 C 56.144531 1.484375 50 2.609375 43.03125 2.609375 C 37.90625 2.609375 33.316406 1.96875 29.265625 0.6875 C 25.222656 -0.59375 21.765625 -2.382812 18.890625 -4.6875 C 16.023438 -6.988281 13.820312 -9.675781 12.28125 -12.75 C 10.75 -15.820312 9.984375 -19.207031 9.984375 -22.90625 C 9.984375 -24.539062 10.191406 -25.816406 10.609375 -26.734375 C 11.734375 -27.867188 13.394531 -28.84375 15.59375 -29.65625 C 17.800781 -30.476562 19.878906 -30.941406 21.828125 -31.046875 C 21.722656 -30.535156 21.671875 -30.070312 21.671875 -29.65625 C 21.671875 -29.25 21.671875 -28.84375 21.671875 -28.4375 C 21.671875 -25.050781 22.257812 -21.894531 23.4375 -18.96875 C 24.613281 -16.050781 26.300781 -13.515625 28.5 -11.359375 C 30.707031 -9.210938 33.453125 -7.523438 36.734375 -6.296875 C 40.015625 -5.066406 43.804688 -4.453125 48.109375 -4.453125 Z M 48.109375 -4.453125 "/></g></g></g><g fill="#ffffff" fill-opacity="1"><g transform="translate(1373.132787, 448.71612)"><g/></g></g></svg>