<?xml version="1.0" encoding="UTF-8"?>
<svg version="1.1" xmlns="http://www.w3.org/2000/svg" width="512" height="512">
<path d="M0 0 C1.01790619 0.00215515 2.03581238 0.0043103 3.08456421 0.00653076 C17.69363523 0.05620146 32.02575853 0.30709809 46.375 3.3125 C47.34985352 3.51117676 48.32470703 3.70985352 49.32910156 3.91455078 C97.7109774 14.03517194 141.69928269 35.9516877 177.375 70.3125 C178.3640332 71.26068604 178.3640332 71.26068604 179.37304688 72.22802734 C188.86130305 81.37247479 197.6012044 90.66984009 205.375 101.3125 C206.23306152 102.46355017 207.09113451 103.61459177 207.94921875 104.765625 C213.98736829 112.95680614 219.34595521 121.47054105 224.375 130.3125 C224.73948242 130.94430176 225.10396484 131.57610352 225.47949219 132.22705078 C247.08534998 169.97532572 256.85198095 212.74189997 256.6875 255.9375 C256.68534485 256.95540619 256.6831897 257.97331238 256.68096924 259.02206421 C256.63129854 273.63113523 256.38040191 287.96325853 253.375 302.3125 C253.07698486 303.77478027 253.07698486 303.77478027 252.77294922 305.26660156 C242.65232806 353.6484774 220.7358123 397.63678269 186.375 433.3125 C185.74287598 433.97185547 185.11075195 434.63121094 184.45947266 435.31054688 C175.31502521 444.79880305 166.01765991 453.5387044 155.375 461.3125 C154.22394983 462.17056152 153.07290823 463.02863451 151.921875 463.88671875 C143.73224019 469.92427396 135.22961724 475.30707302 126.375 480.3125 C125.66778809 480.7146875 124.96057617 481.116875 124.23193359 481.53125 C101.09654164 494.5566741 75.92537591 503.30551461 49.9375 508.625 C49.21860596 508.77235596 48.49971191 508.91971191 47.7590332 509.0715332 C33.08339502 511.86090125 18.55831162 512.66142619 3.64770508 512.62817383 C0.70811513 512.6250221 -2.2304558 512.64854926 -5.16992188 512.67382812 C-18.54306192 512.71848737 -31.43916711 511.51301542 -44.625 509.3125 C-46.33055054 509.03031616 -46.33055054 509.03031616 -48.07055664 508.74243164 C-91.33802759 500.97044532 -132.38793216 480.98345309 -165.625 452.3125 C-166.37007813 451.67828125 -167.11515625 451.0440625 -167.8828125 450.390625 C-181.38779833 438.57948485 -194.05918743 425.82889772 -204.625 411.3125 C-205.48149066 410.16255169 -206.33826433 409.01281411 -207.1953125 407.86328125 C-213.23534209 399.67315742 -218.61867614 391.16870382 -223.625 382.3125 C-224.0271875 381.60528809 -224.429375 380.89807617 -224.84375 380.16943359 C-237.8691741 357.03404164 -246.61801461 331.86287591 -251.9375 305.875 C-252.08485596 305.15610596 -252.23221191 304.43721191 -252.3840332 303.6965332 C-255.35789088 288.05024391 -255.99800362 272.57681954 -255.9375 256.6875 C-255.93534485 255.66959381 -255.9331897 254.65168762 -255.93096924 253.60293579 C-255.88129854 238.99386477 -255.63040191 224.66174147 -252.625 210.3125 C-252.42632324 209.33764648 -252.22764648 208.36279297 -252.02294922 207.35839844 C-241.90232806 158.9765226 -219.9858123 114.98821731 -185.625 79.3125 C-184.99287598 78.65314453 -184.36075195 77.99378906 -183.70947266 77.31445312 C-174.56502521 67.82619695 -165.26765991 59.0862956 -154.625 51.3125 C-153.47394983 50.45443848 -152.32290823 49.59636549 -151.171875 48.73828125 C-142.98224019 42.70072604 -134.47961724 37.31792698 -125.625 32.3125 C-124.91778809 31.9103125 -124.21057617 31.508125 -123.48193359 31.09375 C-100.34654164 18.0683259 -75.17537591 9.31948539 -49.1875 4 C-48.46860596 3.85264404 -47.74971191 3.70528809 -47.0090332 3.5534668 C-31.36274391 0.57960912 -15.88931954 -0.06050362 0 0 Z " fill="#29A71A" transform="translate(255.625,-0.3125)"/>
<path d="M0 0 C34.44961805 -1.30829656 69.79418496 8.30978125 97.65234375 29.09423828 C98.43351563 29.66658203 99.2146875 30.23892578 100.01953125 30.82861328 C105.86866121 35.24075976 111.29977107 40.09740072 116.65234375 45.09423828 C117.85697266 46.20025391 117.85697266 46.20025391 119.0859375 47.32861328 C142.23404786 69.40265132 156.40480284 100.07833991 162.65234375 131.09423828 C162.85988281 132.12419922 163.06742187 133.15416016 163.28125 134.21533203 C166.0289168 150.22097149 165.58538432 167.15525779 162.65234375 183.09423828 C162.52875488 183.80435059 162.40516602 184.51446289 162.27783203 185.24609375 C157.64219178 211.50348393 147.37269557 236.18606619 130.65234375 257.09423828 C130.18715332 257.67753906 129.72196289 258.26083984 129.24267578 258.86181641 C104.21423827 289.86931601 66.93171799 312.16309039 26.98974609 316.82177734 C20.05276033 317.38810332 13.1095221 317.4579106 6.15234375 317.46923828 C5.43581635 317.47141357 4.71928894 317.47358887 3.98104858 317.47583008 C-5.59719933 317.47253155 -14.8949068 316.74353822 -24.34765625 315.09423828 C-25.51699707 314.89145264 -25.51699707 314.89145264 -26.70996094 314.68457031 C-36.47030199 312.85185282 -45.45425803 309.71409856 -54.57275391 305.82421875 C-55.36858887 305.48664551 -56.16442383 305.14907227 -56.984375 304.80126953 C-57.68264404 304.49680908 -58.38091309 304.19234863 -59.1003418 303.87866211 C-64.95664745 301.83452196 -69.5495573 302.26485603 -75.48046875 303.71923828 C-76.26242615 303.90159531 -77.04438354 304.08395233 -77.85003662 304.27183533 C-80.39367618 304.8682058 -82.93306068 305.48089648 -85.47265625 306.09423828 C-87.22913753 306.50984506 -88.98581248 306.92463413 -90.74267578 307.33862305 C-103.42790454 310.34043933 -116.08268029 313.46654826 -128.71484375 316.68408203 C-147.04828816 321.32056793 -147.04828816 321.32056793 -151.22265625 319.09423828 C-154.13851401 313.91049116 -152.04036813 306.4899809 -150.84375 300.97705078 C-150.68495865 300.21428329 -150.5261673 299.45151581 -150.36256409 298.66563416 C-150.02105101 297.03034308 -149.67589501 295.39580923 -149.32739258 293.76199341 C-148.7777972 291.18472887 -148.23826512 288.60553169 -147.70117188 286.02563477 C-146.24384387 279.03847723 -144.76455456 272.05600519 -143.28173828 265.07421875 C-142.45228294 261.16842535 -141.62964541 257.26124555 -140.81082153 253.35321045 C-140.35756809 251.20374329 -139.89476127 249.05648603 -139.43139648 246.90917969 C-136.54224185 234.83392107 -136.54224185 234.83392107 -139.47265625 223.15673828 C-156.88472883 187.24742145 -157.62957334 145.17714191 -145.22753906 107.59912109 C-137.26736795 84.93781266 -124.76305459 65.50806872 -108.34765625 48.09423828 C-107.69925781 47.38138672 -107.05085938 46.66853516 -106.3828125 45.93408203 C-94.98854299 33.88371255 -81.07473317 24.55595725 -66.34765625 17.09423828 C-65.71617676 16.77229492 -65.08469727 16.45035156 -64.43408203 16.11865234 C-44.03256491 5.84692741 -22.75481732 0.91341093 0 0 Z " fill="#29A71A" transform="translate(250.34765625,95.90576171875)"/>
<path d="M0 0 C34.44961805 -1.30829656 69.79418496 8.30978125 97.65234375 29.09423828 C98.43351563 29.66658203 99.2146875 30.23892578 100.01953125 30.82861328 C105.86866121 35.24075976 111.29977107 40.09740072 116.65234375 45.09423828 C117.85697266 46.20025391 117.85697266 46.20025391 119.0859375 47.32861328 C142.23404786 69.40265132 156.40480284 100.07833991 162.65234375 131.09423828 C162.85988281 132.12419922 163.06742187 133.15416016 163.28125 134.21533203 C166.0289168 150.22097149 165.58538432 167.15525779 162.65234375 183.09423828 C162.52875488 183.80435059 162.40516602 184.51446289 162.27783203 185.24609375 C157.64219178 211.50348393 147.37269557 236.18606619 130.65234375 257.09423828 C130.18715332 257.67753906 129.72196289 258.26083984 129.24267578 258.86181641 C104.21423827 289.86931601 66.93171799 312.16309039 26.98974609 316.82177734 C20.05276033 317.38810332 13.1095221 317.4579106 6.15234375 317.46923828 C5.43581635 317.47141357 4.71928894 317.47358887 3.98104858 317.47583008 C-5.59719933 317.47253155 -14.8949068 316.74353822 -24.34765625 315.09423828 C-25.51699707 314.89145264 -25.51699707 314.89145264 -26.70996094 314.68457031 C-36.47030199 312.85185282 -45.45425803 309.71409856 -54.57275391 305.82421875 C-55.36858887 305.48664551 -56.16442383 305.14907227 -56.984375 304.80126953 C-57.68264404 304.49680908 -58.38091309 304.19234863 -59.1003418 303.87866211 C-64.95664745 301.83452196 -69.5495573 302.26485603 -75.48046875 303.71923828 C-76.26242615 303.90159531 -77.04438354 304.08395233 -77.85003662 304.27183533 C-80.39367618 304.8682058 -82.93306068 305.48089648 -85.47265625 306.09423828 C-87.22913753 306.50984506 -88.98581248 306.92463413 -90.74267578 307.33862305 C-103.42790454 310.34043933 -116.08268029 313.46654826 -128.71484375 316.68408203 C-147.04828816 321.32056793 -147.04828816 321.32056793 -151.22265625 319.09423828 C-154.13851401 313.91049116 -152.04036813 306.4899809 -150.84375 300.97705078 C-150.68495865 300.21428329 -150.5261673 299.45151581 -150.36256409 298.66563416 C-150.02105101 297.03034308 -149.67589501 295.39580923 -149.32739258 293.76199341 C-148.7777972 291.18472887 -148.23826512 288.60553169 -147.70117188 286.02563477 C-146.24384387 279.03847723 -144.76455456 272.05600519 -143.28173828 265.07421875 C-142.45228294 261.16842535 -141.62964541 257.26124555 -140.81082153 253.35321045 C-140.35756809 251.20374329 -139.89476127 249.05648603 -139.43139648 246.90917969 C-136.54224185 234.83392107 -136.54224185 234.83392107 -139.47265625 223.15673828 C-156.88472883 187.24742145 -157.62957334 145.17714191 -145.22753906 107.59912109 C-137.26736795 84.93781266 -124.76305459 65.50806872 -108.34765625 48.09423828 C-107.69925781 47.38138672 -107.05085938 46.66853516 -106.3828125 45.93408203 C-94.98854299 33.88371255 -81.07473317 24.55595725 -66.34765625 17.09423828 C-65.71617676 16.77229492 -65.08469727 16.45035156 -64.43408203 16.11865234 C-44.03256491 5.84692741 -22.75481732 0.91341093 0 0 Z M-91.953125 81.18017578 C-103.29950094 94.98832659 -111.37545613 111.70866675 -115.34765625 129.09423828 C-115.64542969 130.30337891 -115.94320312 131.51251953 -116.25 132.75830078 C-122.79643099 161.9256765 -117.90750876 191.70746482 -103.97583008 217.83056641 C-100.55226798 224.29832519 -100.06866422 228.04424929 -101.7109375 235.19580078 C-101.86298141 235.87291107 -102.01502533 236.55002136 -102.17167664 237.24765015 C-102.65840011 239.40711808 -103.15867943 241.56315353 -103.66015625 243.71923828 C-104.30580646 246.54391783 -104.94640533 249.36973038 -105.5859375 252.19580078 C-105.7407962 252.87813782 -105.89565491 253.56047485 -106.0552063 254.26348877 C-108.47832567 264.58206187 -108.47832567 264.58206187 -109.34765625 275.09423828 C-101.0031373 274.42039992 -92.98225144 272.54701028 -84.84765625 270.65673828 C-83.47146157 270.34051529 -82.09516001 270.02475708 -80.71875 269.70947266 C-79.71428581 269.47837799 -79.71428581 269.47837799 -78.68952942 269.24261475 C-76.73149562 268.79481296 -74.77140151 268.35605057 -72.8112793 267.91748047 C-70.76982106 267.43226181 -68.7369763 266.89979861 -66.73754883 266.26318359 C-61.11388052 264.53435051 -57.89231967 265.62100191 -52.69921875 268.27172852 C-51.82007813 268.74940674 -50.9409375 269.22708496 -50.03515625 269.71923828 C-48.176884 270.66538265 -46.31621783 271.60684075 -44.453125 272.54345703 C-43.56931152 272.99253418 -42.68549805 273.44161133 -41.77490234 273.90429688 C-19.16151261 284.99036221 10.53997506 286.44229288 34.65234375 280.09423828 C35.61479004 279.84480469 35.61479004 279.84480469 36.59667969 279.59033203 C58.19926776 273.85231061 76.04773376 262.86136107 92.65234375 248.09423828 C93.30847656 247.52318359 93.96460938 246.95212891 94.640625 246.36376953 C115.13115494 227.34034197 128.48472538 196.7182692 129.80029297 168.97412109 C130.15268222 156.97886099 130.42336512 144.83585425 127.65234375 133.09423828 C127.37261719 131.87994141 127.09289062 130.66564453 126.8046875 129.41455078 C122.133578 110.15352271 113.22739934 93.27102951 100.65234375 78.09423828 C100.02199219 77.32208984 99.39164063 76.54994141 98.7421875 75.75439453 C94.7700789 71.0403431 90.4310203 66.98001333 85.65234375 63.09423828 C84.41097656 62.06169922 84.41097656 62.06169922 83.14453125 61.00830078 C71.02794538 51.38928414 56.44923143 43.62460087 41.65234375 39.09423828 C41.04213379 38.90104004 40.43192383 38.7078418 39.80322266 38.50878906 C28.49594565 35.08445919 17.12877224 34.69959536 5.40234375 34.65673828 C4.68567535 34.65056488 3.96900696 34.64439148 3.23062134 34.63803101 C-35.19787198 34.42532413 -66.85054278 52.95538184 -91.953125 81.18017578 Z " fill="#FDFEFD" transform="translate(250.34765625,95.90576171875)"/>
<path d="M0 0 C5.09030126 2.69282431 7.37198375 5.69051127 9.61328125 10.84765625 C10.06310616 11.82731606 10.06310616 11.82731606 10.52201843 12.82676697 C11.46844791 14.89840573 12.39046705 16.9799066 13.3125 19.0625 C13.94962829 20.46489501 14.5882863 21.8665961 15.22851562 23.26757812 C21.56599403 37.20807162 21.56599403 37.20807162 21 44 C19.4027003 47.3789032 17.76991416 50.06859166 15.3984375 52.9375 C12.18740667 56.83334783 9.96947997 59.73957164 10.42578125 64.94140625 C12.73992051 73.23767421 20.2560247 79.93184973 26 86 C26.57621094 86.61746094 27.15242188 87.23492187 27.74609375 87.87109375 C34.84413211 95.2414789 43.03364892 101.40284751 51.3125 107.375 C51.88685791 107.79177002 52.46121582 108.20854004 53.05297852 108.63793945 C58.513548 112.51958721 63.25496381 115.66217027 70.0625 115.33984375 C76.09017498 114.28257011 80.22759258 108.92505349 84.265625 104.70703125 C86.56337134 102.44551064 87.61167262 102.03670492 90.8515625 101.73046875 C96.54896432 101.81741823 101.95078282 103.72297409 107.375 105.3125 C108.46039063 105.62123047 109.54578125 105.92996094 110.6640625 106.24804688 C113.78330058 107.14275587 116.89324746 108.06292906 120 109 C120.88647217 109.26578857 121.77294434 109.53157715 122.6862793 109.80541992 C123.48203369 110.05525635 124.27778809 110.30509277 125.09765625 110.5625 C125.78351807 110.77648437 126.46937988 110.99046875 127.17602539 111.2109375 C130.72775856 112.74743885 132.04253968 114.6533743 134 118 C135.13575847 123.58414582 134.0165504 126.51692125 131.125 131.375 C123.73640199 142.07880396 115.21040017 150.15730966 102.375 153.3125 C81.97241431 156.54899104 63.61841792 151.13146597 46 141 C45.32839844 140.61682617 44.65679687 140.23365234 43.96484375 139.83886719 C34.11712419 134.14419444 25.42214667 127.62420328 17 120 C16.47390137 119.52884766 15.94780273 119.05769531 15.40576172 118.57226562 C11.89486506 115.42523139 8.43658203 112.22800335 5 109 C4.29359375 108.34773438 3.5871875 107.69546875 2.859375 107.0234375 C-15.01000134 89.95309831 -30.35757349 66.05475214 -31.40283203 40.90063477 C-31.61344722 28.21477775 -27.17144792 19.57504696 -19 10 C-8.26422764 -0.68868564 -8.26422764 -0.68868564 0 0 Z " fill="#FDFEFD" transform="translate(207,178)"/>
</svg>
